<svg xmlns="http://www.w3.org/2000/svg" viewBox="0 0 388.96 60.16"><defs><style>.cls-1,.cls-2{fill:#fff;stroke:#fff;stroke-miterlimit:10;}.cls-2{stroke-width:0.25px;}</style></defs><title>insolar_white_logo</title><g id="Layer_2" data-name="Layer 2"><g id="Text"><path class="cls-1" d="M82,58.86h-6.4V6.06H82Z"/><path class="cls-1" d="M137.8,58.86h-7.92L107.8,23.5l-5.6-10.4h-.08l.32,8.48V58.86H96.36V6.06h7.92l22,35.2L132,51.82H132l-.32-8.48V6.06h6.08Z"/><path class="cls-1" d="M189.56,16.46,184,20.94c-3.2-7-7-9.68-14.8-9.68-8.4,0-13,3.92-13,9s3.52,7.44,14.64,9.36C185,32,190,36.46,190,44.62c0,9-8.08,15-20.4,15-11.2,0-18.56-4.88-22.24-11.44l5.52-4.48c2.8,6.08,8.24,9.92,16.88,9.92,8.16,0,13.6-3,13.6-8.72,0-4.56-3.44-7.2-14.56-9.12-14.24-2.48-19.36-6.8-19.36-14.88,0-8.48,7.44-15.68,19.68-15.68C178.84,5.26,185.48,9.1,189.56,16.46Z"/><path class="cls-1" d="M245.08,32.46c0,16.72-9.44,27.2-24.48,27.2s-24.48-10.48-24.48-27.2,9.44-27.2,24.48-27.2S245.08,15.74,245.08,32.46Zm-42.24,0c0,13.28,6.8,21.2,17.76,21.2s17.76-7.92,17.76-21.2-6.8-21.2-17.76-21.2S202.84,19.18,202.84,32.46Z"/><path class="cls-1" d="M291.64,52.86v6H255V6.06h6.4v46.8Z"/><path class="cls-1" d="M328.2,44.22H304.28l-5.6,14.64H292l20.56-52.8h7.6l20.48,52.8h-6.8Zm-2.32-6L318.76,19.5l-2.48-7.36h-.16l-2.32,7.12-7.2,19Z"/><path class="cls-1" d="M366,36.94H353.4V58.86H347V6.06h20c10.72,0,17.84,5.92,17.84,15.44,0,7.52-4.48,12.8-11.68,14.72L388,58.86h-7.6Zm-12.64-6h13.52c7.52,0,11.2-3.12,11.2-9.44s-3.68-9.44-11.2-9.44H353.4Z"/></g><g id="Symbol"><circle class="cls-2" cx="6.13" cy="6.13" r="6"/><circle class="cls-2" cx="6.13" cy="30.13" r="6"/><circle class="cls-2" cx="6.13" cy="53.13" r="6"/><line class="cls-2" x1="6.13" y1="12.13" x2="6.13" y2="24.13"/><line class="cls-2" x1="6.13" y1="36.13" x2="6.13" y2="47.13"/><circle class="cls-2" cx="29.13" cy="6.13" r="6"/><circle class="cls-2" cx="29.13" cy="30.13" r="6"/><circle class="cls-2" cx="29.13" cy="53.13" r="6"/><line class="cls-2" x1="29.13" y1="12.13" x2="29.13" y2="24.13"/><line class="cls-2" x1="29.13" y1="36.13" x2="29.13" y2="47.13"/><circle class="cls-2" cx="52.13" cy="6.13" r="6"/><circle class="cls-2" cx="52.13" cy="30.13" r="6"/><circle class="cls-2" cx="52.13" cy="53.13" r="6"/><line class="cls-2" x1="52.13" y1="12.13" x2="52.13" y2="24.13"/><line class="cls-2" x1="52.13" y1="36.13" x2="52.13" y2="47.13"/></g></g></svg>