<svg xmlns="http://www.w3.org/2000/svg" viewBox="0 0 388.04 54.4"><defs><style>.cls-1,.cls-2{fill:#4574cc;}.cls-2{stroke:#4574cc;stroke-miterlimit:10;stroke-width:0.25px;}</style></defs><title>insolar_blue_logo</title><g id="Layer_2" data-name="Layer 2"><g id="Text"><path class="cls-1" d="M82,53.6h-6.4V.8H82Z"/><path class="cls-1" d="M137.8,53.6h-7.92L107.8,18.24l-5.6-10.4h-.08l.32,8.48V53.6H96.36V.8h7.92l22,35.2L132,46.56H132l-.32-8.48V.8h6.08Z"/><path class="cls-1" d="M189.56,11.2,184,15.68c-3.2-7-7-9.68-14.8-9.68-8.4,0-13,3.92-13,9s3.52,7.44,14.64,9.36c14.16,2.4,19.2,6.88,19.2,15,0,9-8.08,15-20.4,15-11.2,0-18.56-4.88-22.24-11.44l5.52-4.48c2.8,6.08,8.24,9.92,16.88,9.92,8.16,0,13.6-3,13.6-8.72,0-4.56-3.44-7.2-14.56-9.12-14.24-2.48-19.36-6.8-19.36-14.88C149.48,7.2,156.92,0,169.16,0,178.84,0,185.48,3.84,189.56,11.2Z"/><path class="cls-1" d="M245.08,27.2c0,16.72-9.44,27.2-24.48,27.2s-24.48-10.48-24.48-27.2S205.56,0,220.6,0,245.08,10.48,245.08,27.2Zm-42.24,0c0,13.28,6.8,21.2,17.76,21.2s17.76-7.92,17.76-21.2S231.56,6,220.6,6,202.84,13.92,202.84,27.2Z"/><path class="cls-1" d="M291.64,47.6v6H255V.8h6.4V47.6Z"/><path class="cls-1" d="M328.2,39H304.28l-5.6,14.64H292L312.52.8h7.6L340.6,53.6h-6.8Zm-2.32-6-7.12-18.72-2.48-7.36h-.16L313.8,14l-7.2,19Z"/><path class="cls-1" d="M366,31.68H353.4V53.6H347V.8h20c10.72,0,17.84,5.92,17.84,15.44,0,7.52-4.48,12.8-11.68,14.72L388,53.6h-7.6Zm-12.64-6h13.52c7.52,0,11.2-3.12,11.2-9.44s-3.68-9.44-11.2-9.44H353.4Z"/></g><g id="Symbol"><circle class="cls-2" cx="6.13" cy="24.87" r="6"/><circle class="cls-2" cx="6.13" cy="47.87" r="6"/><line class="cls-2" x1="6.13" y1="6.87" x2="6.13" y2="18.87"/><line class="cls-2" x1="6.13" y1="30.87" x2="6.13" y2="41.87"/><circle class="cls-2" cx="29.13" cy="24.87" r="6"/><circle class="cls-2" cx="29.13" cy="47.87" r="6"/><line class="cls-2" x1="29.13" y1="6.87" x2="29.13" y2="18.87"/><line class="cls-2" x1="29.13" y1="30.87" x2="29.13" y2="41.87"/><circle class="cls-2" cx="52.13" cy="24.87" r="6"/><circle class="cls-2" cx="52.13" cy="47.87" r="6"/><line class="cls-2" x1="52.13" y1="6.87" x2="52.13" y2="18.87"/><line class="cls-2" x1="52.13" y1="30.87" x2="52.13" y2="41.87"/></g></g></svg>